<svg xmlns="http://www.w3.org/2000/svg" version="1.1" xmlns:xlink="http://www.w3.org/1999/xlink" xmlns:svgjs="http://svgjs.dev/svgjs" width="1000" height="623" viewBox="0 0 1000 623"><g transform="matrix(1,0,0,1,-0.6060606060606233,0.2522267206477409)"><svg viewBox="0 0 396 247" data-background-color="#ffffff" preserveAspectRatio="xMidYMid meet" height="623" width="1000" xmlns="http://www.w3.org/2000/svg" xmlns:xlink="http://www.w3.org/1999/xlink"><g id="tight-bounds" transform="matrix(1,0,0,1,0.2400000000000091,-0.09999999999999432)"><svg viewBox="0 0 395.52 247.2" height="247.2" width="395.52"><g><svg></svg></g><g><svg viewBox="0 0 395.52 247.2" height="247.2" width="395.52"><g transform="matrix(1,0,0,1,86.3563805157593,47.215199999999996)"><svg viewBox="0 0 222.80723896848139 152.7696" height="152.7696" width="222.80723896848139"><g><svg viewBox="0 0 222.80723896848139 152.7696" height="152.7696" width="222.80723896848139"><g><svg viewBox="0 0 222.80723896848139 152.7696" height="152.7696" width="222.80723896848139"><g><svg viewBox="0 0 222.80723896848139 152.7696" height="152.7696" width="222.80723896848139"><g id="textblocktransform"><svg viewBox="0 0 222.80723896848139 152.7696" height="152.7696" width="222.80723896848139" id="textblock"><g><svg viewBox="0 0 222.80723896848139 152.7696" height="152.7696" width="222.80723896848139"><g transform="matrix(1,0,0,1,0,0)"><svg width="222.80723896848139" viewBox="4.150000095367432 -34.900001525878906 50.89999771118164 34.900001525878906" height="152.7696" data-palette-color="#ca3433"><path d="M21.4 0L4.15 0 4.15-34.9 8.15-34.9 8.15-3.5 21.4-3.5 21.4 0ZM51.15 0L51.15-23.95 51.5-29.95 51-29.95 48.4-23.95 40.9-8.55 33.4-23.95 30.8-29.85 30.3-29.85 30.65-23.95 30.65 0 26.75 0 26.75-34.9 32.05-34.9 38.35-21.35 40.7-14.9 41.1-14.9 43.45-21.35 49.75-34.9 55.05-34.9 55.05 0 51.15 0Z" opacity="1" transform="matrix(1,0,0,1,0,0)" fill="#ca3433" class="undefined-text-0" data-fill-palette-color="primary" id="text-0"></path></svg></g></svg></g></svg></g></svg></g></svg></g></svg></g></svg></g><path d="M126.862 41.215L126.862 0 374.062 0 374.062 247.2 126.862 247.2 126.862 205.985 140.639 205.985 140.639 233.423 360.285 233.423 360.285 13.777 140.639 13.777 140.639 41.215Z" fill="#ca3433" stroke="transparent" data-fill-palette-color="primary"></path></svg></g><defs></defs></svg><rect width="395.52" height="247.2" fill="none" stroke="none" visibility="hidden"></rect></g></svg></g></svg>